<?xml version="1.0" standalone="no"?>
<!DOCTYPE svg PUBLIC "-//W3C//DTD SVG 20010904//EN"
 "http://www.w3.org/TR/2001/REC-SVG-20010904/DTD/svg10.dtd">
<svg version="1.0" xmlns="http://www.w3.org/2000/svg"
 width="1476.000000pt" height="398.000000pt" viewBox="0 0 1476.000000 398.000000"
 preserveAspectRatio="xMidYMid meet">

<g transform="translate(0.000000,398.000000) scale(0.100000,-0.100000)"
fill="#000000" stroke="none">
<path d="M2050 2872 c-23 -8 -21 -9 18 -15 90 -15 169 -75 205 -156 71 -161
-56 -537 -282 -841 -157 -210 -462 -456 -716 -576 -138 -66 -230 -88 -360 -89
-102 0 -113 2 -156 27 -58 34 -104 102 -120 176 -14 67 -7 195 15 265 8 26 12
47 10 47 -6 0 -73 -137 -94 -193 -40 -111 -52 -179 -48 -282 3 -81 9 -111 29
-155 35 -76 71 -115 132 -144 113 -55 275 -55 444 0 147 47 484 247 644 380
l77 64 89 0 90 0 -33 -222 c-19 -123 -34 -224 -34 -225 0 -2 80 -3 178 -3
l178 0 39 214 39 214 347 7 347 7 132 139 131 139 -451 0 c-425 0 -451 1 -446
18 3 9 8 40 11 67 12 93 -7 85 203 86 103 1 273 4 378 8 l191 6 127 138 c69
76 126 141 126 144 0 4 -244 3 -541 -1 -519 -7 -541 -6 -534 11 61 157 88 296
83 428 -3 90 -7 109 -33 161 -36 69 -93 117 -168 139 -59 18 -210 28 -247 17z"/>
<path d="M6000 1765 l0 -234 175 -3 175 -3 0 43 0 42 -130 0 -130 0 0 55 0 55
125 0 125 0 0 40 0 40 -125 0 -125 0 0 60 0 60 130 0 130 0 0 40 0 40 -175 0
-175 0 0 -235z"/>
<path d="M10983 1323 c-38 -15 -42 -28 -12 -36 36 -9 20 -41 -22 -45 -54 -5
-94 -50 -94 -107 0 -28 6 -50 19 -64 18 -19 27 -21 88 -17 38 3 73 8 79 11 14
9 11 25 -6 25 -12 0 -15 23 -17 123 l-3 123 -32 -13z m-15 -115 c7 -7 12 -34
12 -60 0 -43 -3 -50 -26 -60 -23 -11 -29 -10 -45 11 -46 56 10 158 59 109z"/>
<path d="M11611 1331 c-15 -10 -8 -41 9 -41 15 0 25 29 14 40 -5 5 -15 5 -23
1z"/>
<path d="M11907 1334 c-15 -15 -7 -45 11 -42 9 2 17 12 17 22 0 20 -16 31 -28
20z"/>
<path d="M10250 1321 c0 -3 10 -11 23 -16 20 -9 22 -17 25 -110 3 -99 3 -100
-25 -122 l-28 -23 73 0 c76 0 87 5 47 20 -22 8 -25 16 -25 55 l0 45 41 0 c33
0 47 6 70 31 33 35 36 64 11 96 -15 20 -28 23 -114 26 -54 2 -98 1 -98 -2z
m154 -27 c44 -17 37 -87 -9 -98 -41 -10 -55 2 -55 48 0 24 3 46 7 49 8 9 36 9
57 1z"/>
<path d="M12390 1320 c0 -3 10 -10 23 -15 21 -9 22 -16 22 -115 0 -99 -1 -106
-22 -115 -44 -19 -22 -25 86 -25 116 0 123 3 135 53 8 34 1 34 -29 -1 -17 -20
-34 -29 -57 -30 -60 -2 -68 5 -68 58 0 30 5 50 13 53 24 9 66 -5 73 -25 9 -29
16 -14 18 37 1 44 -15 62 -28 30 -3 -9 -19 -15 -41 -15 l-36 0 3 43 3 42 44 3
c37 3 48 -1 62 -20 22 -28 31 -21 23 19 l-6 30 -109 -1 c-60 0 -109 -3 -109
-6z"/>
<path d="M13691 1321 c-32 -9 -38 -27 -11 -34 18 -5 20 -13 20 -100 0 -72 -4
-99 -15 -111 -23 -22 -19 -26 30 -26 44 0 60 12 30 24 -10 3 -15 19 -15 43 0
74 19 101 61 88 16 -5 19 -17 19 -64 0 -49 -4 -61 -22 -74 -22 -15 -21 -16 36
-16 57 -1 58 0 43 17 -12 13 -17 37 -17 79 0 45 -4 64 -18 76 -20 19 -67 23
-77 7 -17 -27 -27 -7 -23 45 5 57 4 59 -41 46z"/>
<path d="M11482 1261 c-20 -28 -24 -29 -81 -24 -58 6 -62 5 -91 -27 -37 -40
-41 -94 -9 -134 26 -33 85 -36 120 -6 l24 21 -43 -7 c-56 -8 -82 13 -82 67 0
65 60 94 86 40 l12 -23 11 21 c7 11 18 21 26 21 12 0 15 -15 15 -69 0 -43 5
-72 13 -78 6 -6 52 -11 101 -11 86 -2 88 -1 73 16 -13 14 -17 38 -17 96 l0 77
-32 -6 c-45 -8 -94 8 -90 28 5 28 -14 27 -36 -2z m101 -57 c25 -9 25 -122 0
-131 -10 -4 -19 -1 -21 6 -3 9 -7 9 -19 0 -21 -18 -33 5 -33 68 0 39 4 55 18
62 9 6 22 8 27 6 6 -3 18 -8 28 -11z"/>
<path d="M12020 1279 c0 -7 -10 -23 -21 -36 -17 -17 -19 -26 -11 -36 6 -7 12
-44 14 -82 3 -75 11 -84 64 -71 31 8 31 26 0 26 -27 0 -36 16 -36 68 0 47 8
57 48 65 32 7 32 6 67 -69 40 -87 41 -94 17 -124 -16 -19 -22 -21 -40 -11 -24
13 -27 9 -12 -20 15 -27 45 -24 68 9 11 15 34 68 51 117 17 50 38 95 46 101
23 17 18 24 -20 24 -34 0 -46 -12 -25 -25 7 -4 7 -11 2 -18 -5 -7 -12 -24 -16
-39 -9 -37 -19 -35 -39 7 -21 44 -21 55 -2 55 8 0 15 5 15 10 0 6 -32 10 -75
10 -70 0 -75 1 -72 21 1 12 -4 24 -10 26 -7 3 -13 -1 -13 -8z"/>
<path d="M10515 1227 c-30 -10 -33 -27 -5 -27 18 0 20 -7 20 -59 0 -49 -3 -61
-22 -74 -22 -15 -21 -16 36 -16 l60 -1 -22 20 c-24 23 -28 62 -12 105 9 22 15
26 35 21 21 -5 25 -3 25 17 0 22 -4 24 -45 23 -25 -1 -56 -5 -70 -9z"/>
<path d="M10665 1208 c-23 -27 -26 -39 -22 -75 7 -62 29 -83 88 -83 40 0 51 4
68 27 59 75 25 163 -64 163 -36 0 -47 -5 -70 -32z m110 -18 c19 -37 19 -70 -1
-98 -18 -25 -56 -29 -74 -7 -18 21 -18 98 -1 118 22 27 58 21 76 -13z"/>
<path d="M11070 1230 c-22 -6 -23 -8 -7 -15 13 -5 17 -19 17 -61 0 -29 5 -65
12 -79 11 -24 15 -25 72 -21 34 3 70 7 80 9 24 5 34 27 12 27 -13 0 -16 13
-16 70 0 77 -6 85 -55 72 -30 -8 -30 -9 -7 -21 41 -22 24 -131 -22 -131 -26 0
-36 26 -36 92 0 72 -1 73 -50 58z"/>
<path d="M11660 1231 c0 -5 7 -11 15 -14 8 -3 24 -28 35 -54 45 -100 51 -113
59 -113 5 0 19 29 32 65 26 75 45 97 77 88 20 -5 22 -12 22 -64 0 -44 -4 -61
-15 -65 -31 -12 -13 -24 37 -24 49 0 50 1 35 18 -13 14 -17 38 -17 95 0 42 -4
77 -9 77 -5 0 -21 -4 -35 -10 -17 -6 -26 -6 -26 0 0 6 -18 10 -40 10 -37 0
-55 -13 -28 -22 13 -5 -12 -80 -29 -85 -15 -5 -37 67 -24 80 21 21 11 27 -39
27 -27 0 -50 -4 -50 -9z"/>
<path d="M12650 1230 c0 -5 4 -10 10 -10 5 0 19 -21 31 -47 12 -27 30 -68 41
-92 10 -24 21 -41 24 -38 3 3 18 37 33 77 16 40 36 81 45 91 22 27 21 29 -20
29 -32 0 -35 -2 -29 -21 8 -24 -13 -99 -27 -99 -4 0 -8 5 -8 11 0 6 -8 27 -17
47 -12 26 -14 37 -5 40 28 9 9 22 -33 22 -25 0 -45 -4 -45 -10z"/>
<path d="M12877 1212 c-36 -38 -38 -108 -4 -140 27 -26 73 -29 105 -6 33 23
27 34 -13 21 -29 -9 -38 -7 -55 8 -11 10 -20 29 -20 42 0 21 4 23 55 23 64 0
76 14 50 54 -25 37 -81 36 -118 -2z m81 -14 c3 -14 -3 -18 -26 -18 -35 0 -45
9 -30 27 15 19 52 12 56 -9z"/>
<path d="M13043 1229 c-36 -11 -44 -29 -13 -29 18 0 20 -7 20 -60 0 -45 -4
-62 -15 -66 -31 -12 -13 -24 35 -24 48 0 66 12 35 24 -10 4 -15 20 -15 53 0
57 11 78 35 69 11 -4 22 0 30 11 18 24 37 6 64 -60 12 -29 26 -60 32 -70 14
-26 -25 -80 -53 -71 -16 5 -19 2 -16 -13 5 -27 41 -27 64 -1 11 13 35 64 54
113 53 145 74 150 120 25 15 -41 32 -76 38 -78 6 -2 20 17 32 42 11 25 24 46
28 46 4 0 15 -19 23 -42 25 -69 43 -54 80 70 6 17 20 41 31 52 l22 20 -42 0
c-39 0 -57 -13 -31 -22 15 -5 -10 -78 -26 -78 -16 0 -37 62 -25 74 19 19 10
26 -35 26 -48 0 -55 -6 -28 -25 13 -10 15 -19 7 -45 -5 -19 -15 -35 -22 -38
-16 -5 -35 47 -28 81 l6 27 -80 0 c-77 0 -91 -5 -71 -26 10 -9 -8 -84 -20 -84
-13 0 -29 27 -35 58 -4 21 -3 32 5 32 6 0 11 5 11 10 0 15 -133 13 -149 -2
-11 -10 -14 -10 -18 0 -5 14 -6 14 -50 1z"/>
<path d="M13915 1208 c-23 -27 -26 -39 -22 -75 2 -24 13 -53 22 -63 24 -26 82
-26 114 1 27 22 22 36 -7 20 -45 -24 -79 -10 -88 37 l-6 32 45 0 c55 0 77 8
77 27 0 9 8 13 23 11 19 -3 22 -10 25 -55 3 -44 0 -54 -17 -65 -33 -20 -25
-28 29 -28 48 0 66 12 35 24 -16 6 -20 61 -8 104 5 20 10 23 34 18 26 -5 29
-3 29 19 0 28 -10 31 -43 14 -16 -9 -22 -9 -25 0 -4 12 -49 5 -70 -12 -9 -7
-18 -5 -30 7 -10 9 -35 16 -54 16 -28 0 -42 -7 -63 -32z m88 -2 c8 -19 -1 -26
-35 -26 -30 0 -35 9 -16 28 16 16 45 15 51 -2z"/>
<path d="M14236 1209 c-44 -52 -43 -90 2 -141 21 -24 84 -24 105 0 24 27 21
33 -10 21 -37 -14 -67 -4 -81 27 -17 36 -8 44 47 44 62 0 81 19 57 55 -25 38
-86 35 -120 -6z m74 7 c0 -2 3 -11 6 -20 5 -13 -1 -16 -25 -16 -46 0 -40 36 7
39 6 1 12 -1 12 -3z"/>
</g>
</svg>
